<mxfile host="app.diagrams.net" modified="2024-02-28T22:49:24.972Z" agent="Mozilla/5.0 (Windows NT 10.0; Win64; x64; rv:123.0) Gecko/20100101 Firefox/123.0" version="23.1.8" etag="IcHX_Bm7TAiaI53a0qj2" type="github">
  <diagram name="Page-1" id="J5RJT1DCm8GxaRmtifO_">
    <mxGraphModel>
      <root>
        <mxCell id="0" />
        <mxCell id="1" parent="0" />
      </root>
    </mxGraphModel>
  </diagram>
</mxfile>
